<svg width="30" height="30" viewBox="0 0 30 30" fill="none" xmlns="http://www.w3.org/2000/svg">
<path d="M6.875 27.5C6.375 27.5 5.9375 27.3125 5.5625 26.9375C5.1875 26.5625 5 26.125 5 25.625V4.375C5 3.875 5.1875 3.4375 5.5625 3.0625C5.9375 2.6875 6.375 2.5 6.875 2.5H23.125C23.625 2.5 24.0625 2.6875 24.4375 3.0625C24.8125 3.4375 25 3.875 25 4.375V25.625C25 26.125 24.8125 26.5625 24.4375 26.9375C24.0625 27.3125 23.625 27.5 23.125 27.5H6.875ZM6.875 25.625H23.125V4.375H21.25V11.875C21.25 12.0706 21.1771 12.2133 21.0312 12.303C20.8854 12.3927 20.7292 12.3854 20.5625 12.2812L18.2188 10.9375L15.875 12.2812C15.7083 12.3854 15.5521 12.3927 15.4062 12.303C15.2604 12.2133 15.1875 12.0706 15.1875 11.875V4.375H6.875V25.625Z" fill="#1066E9"/>
</svg>
