<svg width="288" height="40" viewBox="0 0 288 40" fill="none" xmlns="http://www.w3.org/2000/svg">
<path d="M20.52 5.73602L19.704 11.352H7.992V19.32H18.216V24.84H7.992V33.336H20.52V39H0.119995V5.73602H20.52Z" fill="#141414"/>
<path d="M38.5969 12.792C39.5249 12.792 40.3729 12.904 41.1409 13.128L39.9409 20.472C38.9809 20.248 38.2129 20.136 37.6369 20.136C36.1329 20.136 34.9809 20.664 34.1809 21.72C33.4129 22.744 32.8049 24.296 32.3569 26.376V39H24.7729V13.512H31.3969L32.0209 18.456C32.5969 16.696 33.4609 15.32 34.6129 14.328C35.7969 13.304 37.1249 12.792 38.5969 12.792Z" fill="#141414"/>
<path d="M51.6225 13.512V39H44.0385V13.512H51.6225ZM47.7825 0.0720215C49.0945 0.0720215 50.1665 0.488022 50.9985 1.32002C51.8625 2.12002 52.2945 3.14402 52.2945 4.39202C52.2945 5.64002 51.8625 6.68002 50.9985 7.51202C50.1665 8.31202 49.0945 8.71202 47.7825 8.71202C46.4705 8.71202 45.3985 8.31202 44.5665 7.51202C43.7345 6.68002 43.3185 5.64002 43.3185 4.39202C43.3185 3.14402 43.7345 2.12002 44.5665 1.32002C45.3985 0.488022 46.4705 0.0720215 47.7825 0.0720215Z" fill="#141414"/>
<path d="M68.6254 12.696C70.3854 12.696 71.9694 12.952 73.3774 13.464C74.7854 13.976 76.1134 14.76 77.3614 15.816L74.0974 20.328C72.4974 19.112 70.8814 18.504 69.2494 18.504C67.5534 18.504 66.2734 19.128 65.4094 20.376C64.5454 21.624 64.1134 23.64 64.1134 26.424C64.1134 29.112 64.5454 31.016 65.4094 32.136C66.2734 33.256 67.5214 33.816 69.1534 33.816C70.0174 33.816 70.8014 33.688 71.5054 33.432C72.2094 33.144 73.0574 32.696 74.0494 32.088L77.3614 36.792C74.8334 38.808 71.9694 39.816 68.7694 39.816C66.1774 39.816 63.9374 39.272 62.0494 38.184C60.1614 37.064 58.7054 35.512 57.6814 33.528C56.6574 31.512 56.1454 29.16 56.1454 26.472C56.1454 23.784 56.6574 21.4 57.6814 19.32C58.7054 17.24 60.1614 15.624 62.0494 14.472C63.9374 13.288 66.1294 12.696 68.6254 12.696Z" fill="#141414"/>
<path d="M88.1381 2.56802V39H80.5541V3.38402L88.1381 2.56802ZM103.882 13.512L96.1541 24.696L104.506 39H95.9621L88.3781 25.08L96.1541 13.512H103.882Z" fill="#141414"/>
<path d="M151.597 39H143.869L143.293 25.992C143.133 22.888 143.053 20.12 143.053 17.688C143.053 15.832 143.101 14.072 143.197 12.408L138.061 35.496H130.621L125.149 12.408C125.341 15.192 125.437 17.816 125.437 20.28C125.437 22.136 125.389 24.072 125.293 26.088L124.717 39H117.037L119.533 5.73602H129.469L134.461 28.296L139.117 5.73602H149.101L151.597 39Z" fill="#141414"/>
<path d="M178.387 25.752C178.387 26.808 178.34 27.72 178.243 28.488H162.451C162.707 30.632 163.315 32.136 164.275 33C165.235 33.864 166.563 34.296 168.259 34.296C169.283 34.296 170.275 34.12 171.235 33.768C172.195 33.384 173.235 32.808 174.355 32.04L177.475 36.264C174.499 38.632 171.187 39.816 167.539 39.816C163.411 39.816 160.243 38.6 158.035 36.168C155.827 33.736 154.723 30.472 154.723 26.376C154.723 23.784 155.187 21.464 156.115 19.416C157.043 17.336 158.403 15.704 160.195 14.52C161.987 13.304 164.132 12.696 166.628 12.696C170.308 12.696 173.188 13.848 175.268 16.152C177.348 18.456 178.387 21.656 178.387 25.752ZM170.947 23.592C170.883 19.688 169.507 17.736 166.819 17.736C165.507 17.736 164.483 18.216 163.747 19.176C163.043 20.136 162.611 21.72 162.451 23.928H170.947V23.592Z" fill="#141414"/>
<path d="M191.624 12.696C193.448 12.696 195.16 12.968 196.76 13.512C198.36 14.056 199.768 14.824 200.984 15.816L198.2 20.088C196.12 18.776 194.024 18.12 191.912 18.12C190.92 18.12 190.152 18.296 189.608 18.648C189.096 18.968 188.84 19.432 188.84 20.04C188.84 20.52 188.952 20.92 189.176 21.24C189.432 21.528 189.928 21.832 190.664 22.152C191.4 22.472 192.536 22.856 194.072 23.304C196.728 24.072 198.696 25.08 199.976 26.328C201.288 27.544 201.944 29.24 201.944 31.416C201.944 33.144 201.448 34.648 200.456 35.928C199.464 37.176 198.104 38.136 196.376 38.808C194.648 39.48 192.728 39.816 190.616 39.816C188.472 39.816 186.472 39.48 184.616 38.808C182.792 38.136 181.24 37.208 179.96 36.024L183.656 31.896C185.8 33.56 188.056 34.392 190.424 34.392C191.576 34.392 192.472 34.184 193.112 33.768C193.784 33.352 194.12 32.76 194.12 31.992C194.12 31.384 193.992 30.904 193.736 30.552C193.48 30.2 192.984 29.88 192.248 29.592C191.512 29.272 190.344 28.888 188.744 28.44C186.216 27.704 184.328 26.68 183.08 25.368C181.832 24.056 181.208 22.424 181.208 20.472C181.208 19 181.624 17.688 182.456 16.536C183.32 15.352 184.536 14.424 186.104 13.752C187.704 13.048 189.544 12.696 191.624 12.696Z" fill="#141414"/>
<path d="M214.499 12.696C216.323 12.696 218.035 12.968 219.635 13.512C221.235 14.056 222.643 14.824 223.859 15.816L221.075 20.088C218.995 18.776 216.899 18.12 214.787 18.12C213.795 18.12 213.027 18.296 212.483 18.648C211.971 18.968 211.715 19.432 211.715 20.04C211.715 20.52 211.827 20.92 212.051 21.24C212.307 21.528 212.803 21.832 213.539 22.152C214.275 22.472 215.411 22.856 216.947 23.304C219.603 24.072 221.571 25.08 222.851 26.328C224.163 27.544 224.819 29.24 224.819 31.416C224.819 33.144 224.323 34.648 223.331 35.928C222.339 37.176 220.979 38.136 219.251 38.808C217.523 39.48 215.603 39.816 213.491 39.816C211.347 39.816 209.347 39.48 207.491 38.808C205.667 38.136 204.115 37.208 202.835 36.024L206.531 31.896C208.675 33.56 210.931 34.392 213.299 34.392C214.451 34.392 215.347 34.184 215.987 33.768C216.659 33.352 216.995 32.76 216.995 31.992C216.995 31.384 216.867 30.904 216.611 30.552C216.355 30.2 215.859 29.88 215.123 29.592C214.387 29.272 213.219 28.888 211.619 28.44C209.091 27.704 207.203 26.68 205.955 25.368C204.707 24.056 204.083 22.424 204.083 20.472C204.083 19 204.499 17.688 205.331 16.536C206.195 15.352 207.411 14.424 208.979 13.752C210.579 13.048 212.419 12.696 214.499 12.696Z" fill="#141414"/>
<path d="M236.31 13.512V39H228.726V13.512H236.31ZM232.47 0.0720215C233.782 0.0720215 234.854 0.488022 235.686 1.32002C236.55 2.12002 236.982 3.14402 236.982 4.39202C236.982 5.64002 236.55 6.68002 235.686 7.51202C234.854 8.31202 233.782 8.71202 232.47 8.71202C231.158 8.71202 230.086 8.31202 229.254 7.51202C228.422 6.68002 228.006 5.64002 228.006 4.39202C228.006 3.14402 228.422 2.12002 229.254 1.32002C230.086 0.488022 231.158 0.0720215 232.47 0.0720215Z" fill="#141414"/>
<path d="M262.529 31.608C262.529 32.568 262.657 33.272 262.913 33.72C263.201 34.168 263.649 34.504 264.257 34.728L262.673 39.672C261.105 39.544 259.825 39.208 258.833 38.664C257.841 38.088 257.073 37.192 256.529 35.976C254.865 38.536 252.305 39.816 248.849 39.816C246.321 39.816 244.305 39.08 242.801 37.608C241.297 36.136 240.545 34.216 240.545 31.848C240.545 29.064 241.569 26.936 243.617 25.464C245.665 23.992 248.625 23.256 252.497 23.256H255.089V22.152C255.089 20.648 254.769 19.624 254.129 19.08C253.489 18.504 252.369 18.216 250.769 18.216C249.937 18.216 248.929 18.344 247.745 18.6C246.561 18.824 245.345 19.144 244.097 19.56L242.369 14.568C243.969 13.96 245.601 13.496 247.265 13.176C248.961 12.856 250.529 12.696 251.969 12.696C255.617 12.696 258.289 13.448 259.985 14.952C261.681 16.456 262.529 18.712 262.529 21.72V31.608ZM251.057 34.392C252.785 34.392 254.129 33.576 255.089 31.944V27.432H253.217C251.489 27.432 250.193 27.736 249.329 28.344C248.497 28.952 248.081 29.896 248.081 31.176C248.081 32.2 248.337 33 248.849 33.576C249.393 34.12 250.129 34.392 251.057 34.392Z" fill="#141414"/>
<path d="M277.077 12.696C278.901 12.696 280.613 12.968 282.213 13.512C283.813 14.056 285.221 14.824 286.437 15.816L283.653 20.088C281.573 18.776 279.477 18.12 277.365 18.12C276.373 18.12 275.605 18.296 275.061 18.648C274.549 18.968 274.293 19.432 274.293 20.04C274.293 20.52 274.405 20.92 274.629 21.24C274.885 21.528 275.381 21.832 276.117 22.152C276.853 22.472 277.989 22.856 279.525 23.304C282.181 24.072 284.149 25.08 285.429 26.328C286.741 27.544 287.397 29.24 287.397 31.416C287.397 33.144 286.901 34.648 285.909 35.928C284.917 37.176 283.557 38.136 281.829 38.808C280.101 39.48 278.181 39.816 276.069 39.816C273.925 39.816 271.925 39.48 270.069 38.808C268.245 38.136 266.693 37.208 265.413 36.024L269.109 31.896C271.253 33.56 273.509 34.392 275.877 34.392C277.029 34.392 277.925 34.184 278.565 33.768C279.237 33.352 279.573 32.76 279.573 31.992C279.573 31.384 279.445 30.904 279.189 30.552C278.933 30.2 278.437 29.88 277.701 29.592C276.965 29.272 275.797 28.888 274.197 28.44C271.669 27.704 269.781 26.68 268.533 25.368C267.285 24.056 266.661 22.424 266.661 20.472C266.661 19 267.077 17.688 267.909 16.536C268.773 15.352 269.989 14.424 271.557 13.752C273.157 13.048 274.997 12.696 277.077 12.696Z" fill="#141414"/>
</svg>
